M48
; DRILL file {KiCad (6.0.0)} date Wed Nov  9 00:41:28 2022
; FORMAT={-:-/ absolute / metric / decimal}
; #@! TF.CreationDate,2022-11-09T00:41:28-05:00
; #@! TF.GenerationSoftware,Kicad,Pcbnew,(6.0.0)
; #@! TF.FileFunction,Plated,1,2,PTH
FMAT,2
METRIC
; #@! TA.AperFunction,Plated,PTH,ViaDrill
T1C0.400
; #@! TA.AperFunction,Plated,PTH,ComponentDrill
T2C0.800
; #@! TA.AperFunction,Plated,PTH,ComponentDrill
T3C0.900
; #@! TA.AperFunction,Plated,PTH,ComponentDrill
T4C0.990
; #@! TA.AperFunction,Plated,PTH,ComponentDrill
T5C1.000
; #@! TA.AperFunction,Plated,PTH,ComponentDrill
T6C1.100
; #@! TA.AperFunction,Plated,PTH,ComponentDrill
T7C1.300
; #@! TA.AperFunction,Plated,PTH,ComponentDrill
T8C1.700
; #@! TA.AperFunction,Plated,PTH,ComponentDrill
T9C2.600
%
G90
G05
T1
X97.79Y-108.585
X102.83Y-101.005
X106.045Y-106.68
X107.315Y-110.49
X118.11Y-104.14
X119.38Y-105.41
X120.65Y-104.14
X125.73Y-102.235
X125.73Y-106.68
X169.545Y-86.36
X191.325Y-84.9
X196.215Y-62.865
X206.375Y-62.865
X215.9Y-62.865
X215.9Y-68.58
T2
X64.135Y-76.175
X64.135Y-78.675
X111.165Y-100.965
X111.165Y-108.585
X113.665Y-100.965
X113.665Y-108.585
X118.81Y-94.615
X121.31Y-94.615
X121.35Y-114.935
X123.85Y-114.935
X183.453Y-72.898
X185.953Y-72.898
T3
X205.735Y-128.905
X208.275Y-128.905
X220.34Y-128.963
X222.88Y-128.963
T4
X181.82Y-128.327
X186.32Y-128.327
X191.98Y-128.327
X196.48Y-128.327
X212.035Y-128.27
X216.535Y-128.27
T5
X193.665Y-62.23
X193.665Y-64.77
X193.665Y-67.31
X193.665Y-69.85
X193.665Y-72.39
X193.665Y-74.93
X193.665Y-77.47
X193.665Y-80.01
X193.665Y-82.55
X193.665Y-85.09
X193.665Y-87.63
X193.665Y-90.17
X193.665Y-92.71
X193.665Y-95.25
X193.665Y-97.79
X208.905Y-62.23
X208.905Y-64.77
X208.905Y-67.31
X208.905Y-69.85
X208.905Y-72.39
X208.905Y-74.93
X208.905Y-77.47
X208.905Y-80.01
X208.905Y-82.55
X208.905Y-85.09
X208.905Y-87.63
X208.905Y-90.17
X208.905Y-92.71
X208.905Y-95.25
X208.905Y-97.79
X219.71Y-60.965
X219.71Y-63.505
X219.71Y-66.045
X219.71Y-68.585
X219.71Y-71.125
T6
X174.02Y-66.413
X174.02Y-70.858
X174.02Y-75.303
X174.02Y-79.748
X174.02Y-84.193
X174.02Y-88.638
X174.02Y-102.178
X174.02Y-106.623
X174.02Y-111.068
X174.02Y-115.513
X174.02Y-119.958
X174.02Y-124.403
T7
X180.56Y-125.837
X187.57Y-125.837
X190.72Y-125.837
X197.73Y-125.837
X210.775Y-125.78
X217.785Y-125.78
T8
X64.135Y-65.005
X79.375Y-65.005
X94.615Y-65.005
X109.855Y-65.005
X125.095Y-65.005
T9
X59.135Y-65.005
X64.135Y-60.505
X69.135Y-65.005
X74.375Y-65.005
X79.375Y-60.505
X84.375Y-65.005
X89.615Y-65.005
X94.615Y-60.505
X99.615Y-65.005
X104.855Y-65.005
X109.855Y-60.505
X114.855Y-65.005
X120.095Y-65.005
X125.095Y-60.505
X130.095Y-65.005
T2
X95.33Y-122.35G85X95.33Y-121.65
G05
X97.83Y-122.35G85X97.83Y-121.65
G05
X99.98Y-127.0G85X100.68Y-127.0
G05
X102.83Y-122.35G85X102.83Y-121.65
G05
X105.33Y-122.35G85X105.33Y-121.65
G05
T3
X136.72Y-63.358G85X136.72Y-66.358
G05
X136.72Y-123.588G85X136.72Y-126.588
G05
X171.42Y-63.358G85X171.42Y-66.358
G05
X171.42Y-123.588G85X171.42Y-126.588
G05
T5
X178.451Y-63.782G85X178.451Y-65.782
G05
X184.151Y-61.782G85X182.151Y-61.782
G05
X184.151Y-67.782G85X182.151Y-67.782
G05
T0
M30
