G04 #@! TF.GenerationSoftware,KiCad,Pcbnew,(6.0.0)*
G04 #@! TF.CreationDate,2022-11-09T00:41:27-05:00*
G04 #@! TF.ProjectId,nano driven fm1236,6e616e6f-2064-4726-9976-656e20666d31,rev?*
G04 #@! TF.SameCoordinates,Original*
G04 #@! TF.FileFunction,Soldermask,Top*
G04 #@! TF.FilePolarity,Negative*
%FSLAX46Y46*%
G04 Gerber Fmt 4.6, Leading zero omitted, Abs format (unit mm)*
G04 Created by KiCad (PCBNEW (6.0.0)) date 2022-11-09 00:41:27*
%MOMM*%
%LPD*%
G01*
G04 APERTURE LIST*
G04 Aperture macros list*
%AMRoundRect*
0 Rectangle with rounded corners*
0 $1 Rounding radius*
0 $2 $3 $4 $5 $6 $7 $8 $9 X,Y pos of 4 corners*
0 Add a 4 corners polygon primitive as box body*
4,1,4,$2,$3,$4,$5,$6,$7,$8,$9,$2,$3,0*
0 Add four circle primitives for the rounded corners*
1,1,$1+$1,$2,$3*
1,1,$1+$1,$4,$5*
1,1,$1+$1,$6,$7*
1,1,$1+$1,$8,$9*
0 Add four rect primitives between the rounded corners*
20,1,$1+$1,$2,$3,$4,$5,0*
20,1,$1+$1,$4,$5,$6,$7,0*
20,1,$1+$1,$6,$7,$8,$9,0*
20,1,$1+$1,$8,$9,$2,$3,0*%
G04 Aperture macros list end*
%ADD10R,1.600000X1.600000*%
%ADD11C,1.600000*%
%ADD12R,3.500000X3.500000*%
%ADD13RoundRect,0.750000X-1.000000X0.750000X-1.000000X-0.750000X1.000000X-0.750000X1.000000X0.750000X0*%
%ADD14RoundRect,0.875000X-0.875000X0.875000X-0.875000X-0.875000X0.875000X-0.875000X0.875000X0.875000X0*%
%ADD15RoundRect,0.200000X-0.200000X-0.275000X0.200000X-0.275000X0.200000X0.275000X-0.200000X0.275000X0*%
%ADD16RoundRect,0.200000X0.200000X0.275000X-0.200000X0.275000X-0.200000X-0.275000X0.200000X-0.275000X0*%
%ADD17RoundRect,0.225000X0.225000X0.250000X-0.225000X0.250000X-0.225000X-0.250000X0.225000X-0.250000X0*%
%ADD18R,1.800000X1.800000*%
%ADD19C,1.800000*%
%ADD20RoundRect,0.200000X0.275000X-0.200000X0.275000X0.200000X-0.275000X0.200000X-0.275000X-0.200000X0*%
%ADD21C,3.200000*%
%ADD22C,3.616000*%
%ADD23C,2.550000*%
%ADD24RoundRect,0.225000X-0.225000X-0.250000X0.225000X-0.250000X0.225000X0.250000X-0.225000X0.250000X0*%
%ADD25O,1.600000X1.600000*%
%ADD26RoundRect,0.225000X0.250000X-0.225000X0.250000X0.225000X-0.250000X0.225000X-0.250000X-0.225000X0*%
%ADD27C,2.100000*%
%ADD28C,1.750000*%
%ADD29O,2.000000X5.170000*%
%ADD30C,1.200000*%
%ADD31O,2.616000X1.308000*%
%ADD32O,1.308000X2.616000*%
%ADD33R,1.500000X1.000000*%
%ADD34R,1.700000X1.700000*%
%ADD35O,1.700000X1.700000*%
%ADD36RoundRect,0.150000X0.150000X-0.825000X0.150000X0.825000X-0.150000X0.825000X-0.150000X-0.825000X0*%
G04 APERTURE END LIST*
D10*
X183452888Y-72898000D03*
D11*
X185952888Y-72898000D03*
D12*
X183151000Y-67782000D03*
D13*
X183151000Y-61782000D03*
D14*
X178451000Y-64782000D03*
D15*
X121095000Y-109855000D03*
X122745000Y-109855000D03*
X211265000Y-77470000D03*
X212915000Y-77470000D03*
D16*
X108775000Y-100965000D03*
X107125000Y-100965000D03*
X129095000Y-106680000D03*
X127445000Y-106680000D03*
X81025000Y-72390000D03*
X79375000Y-72390000D03*
D17*
X132220000Y-106680000D03*
X130670000Y-106680000D03*
D10*
X113665000Y-100965000D03*
D11*
X111165000Y-100965000D03*
D18*
X220340000Y-128962500D03*
D19*
X222880000Y-128962500D03*
D16*
X191325000Y-62230000D03*
X189675000Y-62230000D03*
D20*
X192300000Y-122860000D03*
X192300000Y-121210000D03*
D21*
X52705000Y-127635000D03*
D22*
X99615000Y-65005000D03*
X89615000Y-65005000D03*
X94615000Y-60505000D03*
D23*
X94615000Y-65005000D03*
D15*
X211265000Y-85090000D03*
X212915000Y-85090000D03*
D24*
X176390000Y-118745000D03*
X177940000Y-118745000D03*
D15*
X211265000Y-67310000D03*
X212915000Y-67310000D03*
X189675000Y-80010000D03*
X191325000Y-80010000D03*
D16*
X120840000Y-88900000D03*
X119190000Y-88900000D03*
D15*
X189675000Y-82550000D03*
X191325000Y-82550000D03*
D22*
X130095000Y-65005000D03*
X120095000Y-65005000D03*
X125095000Y-60505000D03*
D23*
X125095000Y-65005000D03*
D24*
X214120000Y-121342500D03*
X215670000Y-121342500D03*
D10*
X118809888Y-94615000D03*
D11*
X121309888Y-94615000D03*
D20*
X208280000Y-125920000D03*
X208280000Y-124270000D03*
D21*
X228600000Y-60960000D03*
D10*
X113665000Y-108585000D03*
D11*
X111165000Y-108585000D03*
D21*
X52705000Y-60960000D03*
D10*
X64135000Y-78675113D03*
D11*
X64135000Y-76175113D03*
D22*
X84375000Y-65005000D03*
X74375000Y-65005000D03*
X79375000Y-60505000D03*
D23*
X79375000Y-65005000D03*
D10*
X208905000Y-97790000D03*
D25*
X208905000Y-95250000D03*
X208905000Y-92710000D03*
X208905000Y-90170000D03*
X208905000Y-87630000D03*
X208905000Y-85090000D03*
X208905000Y-82550000D03*
X208905000Y-80010000D03*
X208905000Y-77470000D03*
X208905000Y-74930000D03*
X208905000Y-72390000D03*
X208905000Y-69850000D03*
X208905000Y-67310000D03*
X208905000Y-64770000D03*
X208905000Y-62230000D03*
X193665000Y-62230000D03*
X193665000Y-64770000D03*
X193665000Y-67310000D03*
X193665000Y-69850000D03*
X193665000Y-72390000D03*
X193665000Y-74930000D03*
X193665000Y-77470000D03*
X193665000Y-80010000D03*
X193665000Y-82550000D03*
X193665000Y-85090000D03*
X193665000Y-87630000D03*
X193665000Y-90170000D03*
X193665000Y-92710000D03*
X193665000Y-95250000D03*
X193665000Y-97790000D03*
D26*
X94615000Y-69355000D03*
X94615000Y-67805000D03*
D24*
X176390000Y-74930000D03*
X177940000Y-74930000D03*
D27*
X180560000Y-125837500D03*
X187570000Y-125837500D03*
D28*
X186320000Y-128327500D03*
X181820000Y-128327500D03*
D10*
X121349888Y-114935000D03*
D11*
X123849888Y-114935000D03*
D15*
X121730000Y-99695000D03*
X123380000Y-99695000D03*
D27*
X174020000Y-66413000D03*
X174020000Y-70858000D03*
X174020000Y-75303000D03*
X174020000Y-79748000D03*
X174020000Y-84193000D03*
X174020000Y-88638000D03*
X174020000Y-102178000D03*
X174020000Y-106623000D03*
X174020000Y-111068000D03*
X174020000Y-115513000D03*
X174020000Y-119958000D03*
X174020000Y-124403000D03*
D29*
X136720000Y-64858000D03*
X136720000Y-125088000D03*
X171420000Y-125088000D03*
X171420000Y-64858000D03*
D24*
X176390000Y-120650000D03*
X177940000Y-120650000D03*
X94615000Y-71120000D03*
X96165000Y-71120000D03*
D26*
X79375000Y-69990000D03*
X79375000Y-68440000D03*
D15*
X211265000Y-80010000D03*
X212915000Y-80010000D03*
D24*
X64135000Y-69215000D03*
X65685000Y-69215000D03*
D16*
X108775000Y-108585000D03*
X107125000Y-108585000D03*
D20*
X212355000Y-122802500D03*
X212355000Y-121152500D03*
D27*
X190720000Y-125837500D03*
X197730000Y-125837500D03*
D28*
X196480000Y-128327500D03*
X191980000Y-128327500D03*
D18*
X205735000Y-128905000D03*
D19*
X208275000Y-128905000D03*
D27*
X210775000Y-125780000D03*
X217785000Y-125780000D03*
D28*
X216535000Y-128270000D03*
X212035000Y-128270000D03*
D20*
X105410000Y-102615000D03*
X105410000Y-100965000D03*
D30*
X105330000Y-127000000D03*
X95330000Y-127000000D03*
X100330000Y-122000000D03*
X105330000Y-129500000D03*
X95330000Y-129500000D03*
D31*
X100330000Y-127000000D03*
D32*
X105330000Y-122000000D03*
X95330000Y-122000000D03*
X102830000Y-122000000D03*
X97830000Y-122000000D03*
D33*
X177165000Y-90200000D03*
X177165000Y-88900000D03*
X177165000Y-87600000D03*
D15*
X211265000Y-64770000D03*
X212915000Y-64770000D03*
D20*
X222885000Y-125977500D03*
X222885000Y-124327500D03*
D34*
X219710000Y-60965000D03*
D35*
X219710000Y-63505000D03*
X219710000Y-66045000D03*
X219710000Y-68585000D03*
X219710000Y-71125000D03*
D16*
X129095000Y-102235000D03*
X127445000Y-102235000D03*
D21*
X228600000Y-127635000D03*
D24*
X194065000Y-121400000D03*
X195615000Y-121400000D03*
X183905000Y-121400000D03*
X185455000Y-121400000D03*
D20*
X64135000Y-73850000D03*
X64135000Y-72200000D03*
X79375000Y-76835000D03*
X79375000Y-75185000D03*
D24*
X176390000Y-76835000D03*
X177940000Y-76835000D03*
D20*
X182140000Y-122860000D03*
X182140000Y-121210000D03*
D36*
X118110000Y-107250000D03*
X119380000Y-107250000D03*
X120650000Y-107250000D03*
X121920000Y-107250000D03*
X121920000Y-102300000D03*
X120650000Y-102300000D03*
X119380000Y-102300000D03*
X118110000Y-102300000D03*
D20*
X105410000Y-110235000D03*
X105410000Y-108585000D03*
D16*
X119380000Y-109855000D03*
X117730000Y-109855000D03*
D17*
X132220000Y-102235000D03*
X130670000Y-102235000D03*
D15*
X97600000Y-71120000D03*
X99250000Y-71120000D03*
D22*
X114855000Y-65005000D03*
X104855000Y-65005000D03*
X109855000Y-60505000D03*
D23*
X109855000Y-65005000D03*
D16*
X120205000Y-99695000D03*
X118555000Y-99695000D03*
D22*
X69135000Y-65005000D03*
X59135000Y-65005000D03*
X64135000Y-60505000D03*
D23*
X64135000Y-65005000D03*
M02*
