G04 #@! TF.GenerationSoftware,KiCad,Pcbnew,(6.0.0)*
G04 #@! TF.CreationDate,2022-11-09T00:41:27-05:00*
G04 #@! TF.ProjectId,nano driven fm1236,6e616e6f-2064-4726-9976-656e20666d31,rev?*
G04 #@! TF.SameCoordinates,Original*
G04 #@! TF.FileFunction,Legend,Bot*
G04 #@! TF.FilePolarity,Positive*
%FSLAX46Y46*%
G04 Gerber Fmt 4.6, Leading zero omitted, Abs format (unit mm)*
G04 Created by KiCad (PCBNEW (6.0.0)) date 2022-11-09 00:41:27*
%MOMM*%
%LPD*%
G01*
G04 APERTURE LIST*
G04 Aperture macros list*
%AMRoundRect*
0 Rectangle with rounded corners*
0 $1 Rounding radius*
0 $2 $3 $4 $5 $6 $7 $8 $9 X,Y pos of 4 corners*
0 Add a 4 corners polygon primitive as box body*
4,1,4,$2,$3,$4,$5,$6,$7,$8,$9,$2,$3,0*
0 Add four circle primitives for the rounded corners*
1,1,$1+$1,$2,$3*
1,1,$1+$1,$4,$5*
1,1,$1+$1,$6,$7*
1,1,$1+$1,$8,$9*
0 Add four rect primitives between the rounded corners*
20,1,$1+$1,$2,$3,$4,$5,0*
20,1,$1+$1,$4,$5,$6,$7,0*
20,1,$1+$1,$6,$7,$8,$9,0*
20,1,$1+$1,$8,$9,$2,$3,0*%
G04 Aperture macros list end*
%ADD10R,1.600000X1.600000*%
%ADD11C,1.600000*%
%ADD12R,3.500000X3.500000*%
%ADD13RoundRect,0.750000X-1.000000X0.750000X-1.000000X-0.750000X1.000000X-0.750000X1.000000X0.750000X0*%
%ADD14RoundRect,0.875000X-0.875000X0.875000X-0.875000X-0.875000X0.875000X-0.875000X0.875000X0.875000X0*%
%ADD15R,1.800000X1.800000*%
%ADD16C,1.800000*%
%ADD17C,3.200000*%
%ADD18C,3.616000*%
%ADD19C,2.550000*%
%ADD20O,1.600000X1.600000*%
%ADD21C,2.100000*%
%ADD22C,1.750000*%
%ADD23O,2.000000X5.170000*%
%ADD24C,1.200000*%
%ADD25O,2.616000X1.308000*%
%ADD26O,1.308000X2.616000*%
%ADD27R,1.700000X1.700000*%
%ADD28O,1.700000X1.700000*%
G04 APERTURE END LIST*
%LPC*%
D10*
X183452888Y-72898000D03*
D11*
X185952888Y-72898000D03*
D12*
X183151000Y-67782000D03*
D13*
X183151000Y-61782000D03*
D14*
X178451000Y-64782000D03*
D10*
X113665000Y-100965000D03*
D11*
X111165000Y-100965000D03*
D15*
X220340000Y-128962500D03*
D16*
X222880000Y-128962500D03*
D17*
X52705000Y-127635000D03*
D18*
X99615000Y-65005000D03*
X89615000Y-65005000D03*
X94615000Y-60505000D03*
D19*
X94615000Y-65005000D03*
D18*
X130095000Y-65005000D03*
X120095000Y-65005000D03*
X125095000Y-60505000D03*
D19*
X125095000Y-65005000D03*
D10*
X118809888Y-94615000D03*
D11*
X121309888Y-94615000D03*
D17*
X228600000Y-60960000D03*
D10*
X113665000Y-108585000D03*
D11*
X111165000Y-108585000D03*
D17*
X52705000Y-60960000D03*
D10*
X64135000Y-78675113D03*
D11*
X64135000Y-76175113D03*
D18*
X84375000Y-65005000D03*
X74375000Y-65005000D03*
X79375000Y-60505000D03*
D19*
X79375000Y-65005000D03*
D10*
X208905000Y-97790000D03*
D20*
X208905000Y-95250000D03*
X208905000Y-92710000D03*
X208905000Y-90170000D03*
X208905000Y-87630000D03*
X208905000Y-85090000D03*
X208905000Y-82550000D03*
X208905000Y-80010000D03*
X208905000Y-77470000D03*
X208905000Y-74930000D03*
X208905000Y-72390000D03*
X208905000Y-69850000D03*
X208905000Y-67310000D03*
X208905000Y-64770000D03*
X208905000Y-62230000D03*
X193665000Y-62230000D03*
X193665000Y-64770000D03*
X193665000Y-67310000D03*
X193665000Y-69850000D03*
X193665000Y-72390000D03*
X193665000Y-74930000D03*
X193665000Y-77470000D03*
X193665000Y-80010000D03*
X193665000Y-82550000D03*
X193665000Y-85090000D03*
X193665000Y-87630000D03*
X193665000Y-90170000D03*
X193665000Y-92710000D03*
X193665000Y-95250000D03*
X193665000Y-97790000D03*
D21*
X180560000Y-125837500D03*
X187570000Y-125837500D03*
D22*
X186320000Y-128327500D03*
X181820000Y-128327500D03*
D10*
X121349888Y-114935000D03*
D11*
X123849888Y-114935000D03*
D21*
X174020000Y-66413000D03*
X174020000Y-70858000D03*
X174020000Y-75303000D03*
X174020000Y-79748000D03*
X174020000Y-84193000D03*
X174020000Y-88638000D03*
X174020000Y-102178000D03*
X174020000Y-106623000D03*
X174020000Y-111068000D03*
X174020000Y-115513000D03*
X174020000Y-119958000D03*
X174020000Y-124403000D03*
D23*
X136720000Y-64858000D03*
X136720000Y-125088000D03*
X171420000Y-125088000D03*
X171420000Y-64858000D03*
D21*
X190720000Y-125837500D03*
X197730000Y-125837500D03*
D22*
X196480000Y-128327500D03*
X191980000Y-128327500D03*
D15*
X205735000Y-128905000D03*
D16*
X208275000Y-128905000D03*
D21*
X210775000Y-125780000D03*
X217785000Y-125780000D03*
D22*
X216535000Y-128270000D03*
X212035000Y-128270000D03*
D24*
X105330000Y-127000000D03*
X95330000Y-127000000D03*
X100330000Y-122000000D03*
X105330000Y-129500000D03*
X95330000Y-129500000D03*
D25*
X100330000Y-127000000D03*
D26*
X105330000Y-122000000D03*
X95330000Y-122000000D03*
X102830000Y-122000000D03*
X97830000Y-122000000D03*
D27*
X219710000Y-60965000D03*
D28*
X219710000Y-63505000D03*
X219710000Y-66045000D03*
X219710000Y-68585000D03*
X219710000Y-71125000D03*
D17*
X228600000Y-127635000D03*
D18*
X114855000Y-65005000D03*
X104855000Y-65005000D03*
X109855000Y-60505000D03*
D19*
X109855000Y-65005000D03*
D18*
X69135000Y-65005000D03*
X59135000Y-65005000D03*
X64135000Y-60505000D03*
D19*
X64135000Y-65005000D03*
M02*
